<?xml version="1.0" encoding="utf-8"?>
<!-- Generator: Adobe Illustrator 27.0.0, SVG Export Plug-In . SVG Version: 6.00 Build 0)  -->
<svg version="1.1" id="Layer_1" xmlns="http://www.w3.org/2000/svg" xmlns:xlink="http://www.w3.org/1999/xlink" x="0px" y="0px"
	 viewBox="0 0 800 800" style="enable-background:new 0 0 800 800;" xml:space="preserve">
<style type="text/css">
	.st0{fill:#FCFAF2;}
</style>
<g id="SVGRepo_bgCarrier">
</g>
<g id="SVGRepo_tracerCarrier">
</g>
<g id="SVGRepo_iconCarrier">
	<path class="st0" d="M372.9,691.2c21.5,0,36.9-15.8,36.9-36.9V150.9c0-21.1-15.5-38.8-37.6-38.8c-15.5,0-25.9,6.9-42.6,22.7
		L190.4,266.4c-2.2,1.9-5,2.8-8.2,2.8H88.5C44,269.2,20,293.5,20,340.9v122.5c0,47.3,24,71.6,68.5,71.6h93.7c3.2,0,6,0.9,8.2,2.8
		l139.2,132.9C344.8,684.9,357.4,691.2,372.9,691.2z M678.1,626.8c12.3,8.2,27.5,5,36.3-7.6C756,561.2,780,483.8,780,403
		c0-81.1-23.7-158.4-65.6-216.5c-9.2-12.3-24-15.5-36.3-7.3c-12,8.2-13.9,23.7-4.4,37.2C708,267,729.2,333.3,729.2,403
		c0,69.8-20.5,136.7-55.9,186.5C664.5,603.1,666.1,618.6,678.1,626.8z M552.1,541.6c10.7,7.6,26.2,5,35.3-7.3
		c24.6-33.1,39.5-81.7,39.5-131.3c0-49.6-15.2-97.8-39.5-131.6c-9.2-12.3-24.3-14.8-35.3-7.3c-13.9,9.2-15.5,25.2-5.4,39.1
		c18.3,24.6,29.4,62.2,29.4,99.7c0,37.6-11.7,75.1-29.7,100C537,516.7,538.6,532.1,552.1,541.6z"/>
</g>
</svg>
