<?xml version="1.0" encoding="UTF-8"?><svg id="icons" xmlns="http://www.w3.org/2000/svg" viewBox="0 0 100 100"><defs><style>.cls-1{fill:#771214;}</style></defs><circle class="cls-1" cx="50.16" cy="50" r="25"/><path class="cls-1" d="M53.51,12.5c-2.13,3.68-3.35,7.95-3.35,12.5,0-4.55-1.22-8.82-3.35-12.5L50.16,.03l3.35,12.47Z"/><path class="cls-1" d="M46.81,87.5c2.13-3.68,3.35-7.95,3.35-12.5,0,4.55,1.22,8.82,3.35,12.5l-3.35,12.47-3.35-12.47Z"/><path class="cls-1" d="M26.01,21.11c1.1,4.11,3.25,7.99,6.47,11.21-3.22-3.22-7.1-5.37-11.21-6.47l-6.45-11.19,11.19,6.45Z"/><path class="cls-1" d="M74.31,78.89c-1.1-4.11-3.25-7.99-6.47-11.21,3.22,3.22,7.1,5.37,11.21,6.47l6.45,11.19-11.19-6.45Z"/><path class="cls-1" d="M12.66,46.65c3.68,2.13,7.95,3.35,12.5,3.35-4.55,0-8.82,1.22-12.5,3.35L.19,50l12.47-3.35Z"/><path class="cls-1" d="M87.66,53.35c-3.68-2.13-7.95-3.35-12.5-3.35,4.55,0,8.82-1.22,12.5-3.35l12.47,3.35-12.47,3.35Z"/><path class="cls-1" d="M21.27,74.15c4.11-1.1,7.99-3.25,11.21-6.47-3.22,3.22-5.37,7.1-6.47,11.21l-11.19,6.45,6.45-11.19Z"/><path class="cls-1" d="M79.04,25.85c-4.11,1.1-7.99,3.25-11.21,6.47,3.22-3.22,5.37-7.1,6.47-11.21l11.19-6.45-6.45,11.19Z"/></svg>