<?xml version="1.0" encoding="utf-8"?>
<!-- Generator: Adobe Illustrator 27.0.0, SVG Export Plug-In . SVG Version: 6.00 Build 0)  -->
<svg version="1.1" id="icons" xmlns="http://www.w3.org/2000/svg" xmlns:xlink="http://www.w3.org/1999/xlink" x="0px" y="0px"
	 viewBox="0 0 100 100" style="enable-background:new 0 0 100 100;" xml:space="preserve">
<style type="text/css">
	.st0{fill:#CB1B45;}
</style>
<circle class="st0" cx="50.2" cy="50" r="25"/>
<path class="st0" d="M53.5,12.5c-2.1,3.7-3.3,8-3.3,12.5c0-4.5-1.2-8.8-3.3-12.5L50.2,0L53.5,12.5z"/>
<path class="st0" d="M46.8,87.5c2.1-3.7,3.3-7.9,3.3-12.5c0,4.6,1.2,8.8,3.3,12.5L50.2,100L46.8,87.5z"/>
<path class="st0" d="M26,21.1c1.1,4.1,3.2,8,6.5,11.2c-3.2-3.2-7.1-5.4-11.2-6.5l-6.4-11.2L26,21.1z"/>
<path class="st0" d="M74.3,78.9c-1.1-4.1-3.2-8-6.5-11.2c3.2,3.2,7.1,5.4,11.2,6.5l6.4,11.2C85.5,85.3,74.3,78.9,74.3,78.9z"/>
<path class="st0" d="M12.7,46.7c3.7,2.1,8,3.3,12.5,3.3c-4.5,0-8.8,1.2-12.5,3.3L0.2,50L12.7,46.7z"/>
<path class="st0" d="M87.7,53.3C84,51.2,79.7,50,75.2,50c4.6,0,8.8-1.2,12.5-3.3l12.5,3.3L87.7,53.3z"/>
<path class="st0" d="M21.3,74.2c4.1-1.1,8-3.2,11.2-6.5c-3.2,3.2-5.4,7.1-6.5,11.2l-11.2,6.4C14.8,85.3,21.3,74.1,21.3,74.2z"/>
<path class="st0" d="M79,25.9c-4.1,1.1-8,3.2-11.2,6.5c3.2-3.2,5.4-7.1,6.5-11.2l11.2-6.4C85.5,14.7,79,25.9,79,25.9z"/>
</svg>
