<?xml version="1.0" encoding="utf-8"?>
<!-- Generator: Adobe Illustrator 27.0.0, SVG Export Plug-In . SVG Version: 6.00 Build 0)  -->
<svg version="1.1" id="icons" xmlns="http://www.w3.org/2000/svg" xmlns:xlink="http://www.w3.org/1999/xlink" x="0px" y="0px"
	 viewBox="0 0 100 100" style="enable-background:new 0 0 100 100;" xml:space="preserve">
<style type="text/css">
	.st0{fill:#005CAF;}
</style>
<path class="st0" d="M24.9,50v18.8c0,3.4-2.8,6.2-6.2,6.2s-6.2-2.8-6.2-6.2c0-1.7,0.7-3.3,1.8-4.4l0,0C14.2,64.3,24.8,50,24.9,50z"
	/>
<path class="st0" d="M49.8,75v18.8c0,3.4-2.8,6.2-6.2,6.2s-6.2-2.8-6.2-6.2c0-1.7,0.7-3.3,1.8-4.4l0,0L49.8,75z"/>
<path class="st0" d="M62.3,25v18.8c0,3.5-2.8,6.2-6.2,6.2s-6.2-2.8-6.2-6.2c0-1.7,0.7-3.3,1.8-4.4l0,0L62.3,25z"/>
<path class="st0" d="M87.3,50v18.8c0,3.4-2.8,6.2-6.2,6.2s-6.2-2.8-6.2-6.2c0-1.7,0.7-3.3,1.8-4.4l0,0L87.3,50z"/>
<path class="st0" d="M37.3,0v18.8c0,3.5-2.8,6.2-6.2,6.2s-6.2-2.8-6.2-6.2c0-1.7,0.7-3.3,1.8-4.4l0,0L37.3,0z"/>
</svg>
