<?xml version="1.0" encoding="UTF-8"?><svg id="icons" xmlns="http://www.w3.org/2000/svg" viewBox="0 0 100 100"><defs><style>.cls-1{fill:#35449c;}</style></defs><path class="cls-1" d="M24.85,50v18.75c0,3.45-2.8,6.25-6.25,6.25s-6.25-2.8-6.25-6.25c0-1.72,.69-3.27,1.82-4.4l.03-.03,10.65-14.32Z"/><path class="cls-1" d="M49.85,75v18.75c0,3.45-2.8,6.25-6.25,6.25s-6.25-2.8-6.25-6.25c0-1.72,.69-3.27,1.82-4.4l.03-.03,10.65-14.32Z"/><path class="cls-1" d="M62.35,25v18.75c0,3.45-2.8,6.25-6.25,6.25s-6.25-2.8-6.25-6.25c0-1.72,.69-3.27,1.82-4.4l.03-.03,10.65-14.32Z"/><path class="cls-1" d="M87.35,50v18.75c0,3.45-2.8,6.25-6.25,6.25s-6.25-2.8-6.25-6.25c0-1.72,.69-3.27,1.82-4.4l.03-.03,10.65-14.32Z"/><path class="cls-1" d="M37.35,0V18.75c0,3.45-2.8,6.25-6.25,6.25s-6.25-2.8-6.25-6.25c0-1.72,.69-3.27,1.82-4.4l.03-.03L37.35,0Z"/></svg>