<?xml version="1.0" encoding="utf-8"?>
<!-- Generator: Adobe Illustrator 27.0.0, SVG Export Plug-In . SVG Version: 6.00 Build 0)  -->
<svg version="1.1" id="icons" xmlns="http://www.w3.org/2000/svg" xmlns:xlink="http://www.w3.org/1999/xlink" x="0px" y="0px"
	 viewBox="0 0 100 100" style="enable-background:new 0 0 100 100;" xml:space="preserve">
<style type="text/css">
	.st0{fill:#91989F;}
</style>
<path class="st0" d="M87.5,43.8c0,3.5-2.8,6.2-6.2,6.2H43.8c-3.5,0-6.2-2.8-6.2-6.2s2.8-6.2,6.2-6.2h-25c-3.4,0-6.2-2.8-6.2-6.2
	s2.8-6.2,6.2-6.2h37.5c3.5,0,6.2,2.8,6.2,6.2s-2.8,6.2-6.2,6.2h25C84.8,37.5,87.5,40.3,87.5,43.8z"/>
<path class="st0" d="M68.8,68.8H18.7c-3.4,0-6.2-2.8-6.2-6.2s2.8-6.2,6.2-6.2h50.1c3.4,0,6.2,2.8,6.2,6.2
	C75,65.9,72.2,68.8,68.8,68.8z"/>
<path class="st0" d="M56.3,87.5h-25c-3.5,0-6.2-2.8-6.2-6.2s2.8-6.2,6.2-6.2h25c3.5,0,6.2,2.8,6.2,6.2S59.7,87.5,56.3,87.5z"/>
<path class="st0" d="M81.3,25h-13c-3.4,0-6.2-2.8-6.2-6.2s2.8-6.2,6.2-6.2h13c3.4,0,6.2,2.8,6.2,6.2S84.7,25,81.3,25z"/>
</svg>
