<?xml version="1.0" encoding="UTF-8"?><svg id="icons" xmlns="http://www.w3.org/2000/svg" viewBox="0 0 100 100"><defs><style>.cls-1{fill:#4a494a;}</style></defs><path class="cls-1" d="M87.54,43.75c0,3.45-2.79,6.25-6.25,6.25H43.79c-3.45,0-6.25-2.8-6.25-6.25s2.8-6.25,6.25-6.25H18.79c-3.45,0-6.25-2.8-6.25-6.25s2.8-6.25,6.25-6.25H56.29c3.46,0,6.25,2.8,6.25,6.25s-2.79,6.25-6.25,6.25h25c3.46,0,6.25,2.8,6.25,6.25Z"/><path class="cls-1" d="M68.79,68.75H18.72c-3.45,0-6.25-2.8-6.25-6.25s2.8-6.25,6.25-6.25h50.07c3.45,0,6.25,2.8,6.25,6.25s-2.8,6.25-6.25,6.25Z"/><path class="cls-1" d="M56.29,87.5H31.26c-3.45,0-6.25-2.8-6.25-6.25s2.8-6.25,6.25-6.25h25.03c3.45,0,6.25,2.8,6.25,6.25s-2.8,6.25-6.25,6.25Z"/><path class="cls-1" d="M81.29,25h-13.02c-3.45,0-6.25-2.8-6.25-6.25s2.8-6.25,6.25-6.25h13.02c3.45,0,6.25,2.8,6.25,6.25s-2.8,6.25-6.25,6.25Z"/></svg>