<?xml version="1.0" encoding="utf-8"?>
<!-- Generator: Adobe Illustrator 27.0.0, SVG Export Plug-In . SVG Version: 6.00 Build 0)  -->
<svg version="1.1" id="icons" xmlns="http://www.w3.org/2000/svg" xmlns:xlink="http://www.w3.org/1999/xlink" x="0px" y="0px"
	 viewBox="0 0 100 100" style="enable-background:new 0 0 100 100;" xml:space="preserve">
<style type="text/css">
	.st0{fill:#005CAF;}
</style>
<path class="st0" d="M37.5,50v37.5c0,6.9-5.6,12.5-12.5,12.5s-12.5-5.6-12.5-12.5c0-3.4,1.4-6.6,3.7-8.8C16.2,78.7,37.5,50,37.5,50z
	"/>
<path class="st0" d="M87.5,37.5V75c0,6.9-5.6,12.5-12.5,12.5S62.5,81.9,62.5,75c0-3.4,1.4-6.6,3.7-8.8
	C66.2,66.2,87.5,37.5,87.5,37.5z"/>
<path class="st0" d="M62.5,0v37.5C62.5,44.4,56.9,50,50,50s-12.5-5.6-12.5-12.5c0-3.5,1.4-6.6,3.7-8.8L62.5,0z"/>
</svg>
