<?xml version="1.0" encoding="UTF-8"?><svg id="icons" xmlns="http://www.w3.org/2000/svg" viewBox="0 0 100 100"><defs><style>.cls-1{fill:#35449c;}</style></defs><path class="cls-1" d="M37.5,50v37.5c0,6.9-5.6,12.5-12.5,12.5s-12.5-5.6-12.5-12.5c0-3.45,1.4-6.58,3.66-8.84l21.34-28.66Z"/><path class="cls-1" d="M87.5,37.5v37.5c0,6.9-5.6,12.5-12.5,12.5s-12.5-5.6-12.5-12.5c0-3.45,1.4-6.58,3.66-8.84l21.34-28.66Z"/><path class="cls-1" d="M62.5,0V37.5c0,6.9-5.6,12.5-12.5,12.5s-12.5-5.6-12.5-12.5c0-3.45,1.4-6.58,3.66-8.84L62.5,0Z"/></svg>