<?xml version="1.0" encoding="UTF-8"?><svg id="icons" xmlns="http://www.w3.org/2000/svg" viewBox="0 0 100 100"><defs><style>.cls-1{fill:#d2d2d2;}</style></defs><polygon class="cls-1" points="90.57 66.47 92.86 74.99 84.32 77.28 82.63 70.86 75.99 67.03 73.94 78.53 71.54 64.47 56.37 55.71 51.06 61.02 51.06 76.26 62.06 85.38 51.06 81.4 51.06 89.03 55.81 93.74 49.56 99.99 43.31 93.74 48.06 89.03 48.06 81.4 37.06 85.38 48.06 76.26 48.06 61.02 42.75 55.71 27.58 64.47 25.18 78.53 22.83 67.22 16.49 70.88 14.77 77.3 6.26 74.99 8.52 66.47 15.06 68.23 21.34 64.6 12.68 56.88 26.11 61.84 40.56 53.52 37.06 50.02 40.53 46.57 26.05 38.21 12.68 43.16 21.3 35.46 14.95 31.79 8.52 33.52 6.26 24.99 14.77 22.7 16.52 29.23 22.82 32.86 25.18 21.51 27.59 35.63 42.74 44.38 48.06 39.08 48.06 23.78 37.06 14.66 48.06 18.28 48.06 10.97 43.31 6.22 49.56 0 55.81 6.22 51.06 10.97 51.06 18.28 62.06 14.66 51.06 23.78 51.06 39.08 56.38 44.38 71.53 35.63 73.94 21.51 75.99 33.04 82.6 29.23 84.32 22.72 92.86 24.99 90.57 33.53 84.16 31.8 77.51 35.64 86.44 43.16 73.07 38.21 58.59 46.57 62.06 50.02 58.56 53.52 73.01 61.84 86.44 56.88 77.47 64.42 84.05 68.22 90.57 66.47"/></svg>