<?xml version="1.0" encoding="UTF-8"?><svg id="Layer_1" xmlns="http://www.w3.org/2000/svg" viewBox="0 0 611.94 473.44"><defs><style>.cls-1{fill:#fcfaf2;}</style></defs><path class="cls-1" d="M513.2,226.41c0,29.82-10.78,57.16-28.65,78.35-2.91-6.96-6.44-13.58-10.54-19.81-4-6.11-8.55-11.84-13.56-17.12,7.3-12.13,11.5-26.34,11.5-41.5,0-44.45-36.09-80.47-80.47-80.47-22.98,0-43.76,9.68-58.46,25.19-5.08-4.7-10.49-9.01-16.2-12.92-5.74-3.93-11.77-7.43-18.06-10.48,22.33-26.27,55.62-42.96,92.72-42.96,67.11,0,121.72,54.61,121.72,121.72Z"/><path class="cls-1" d="M611.25,171.09c-2.74-10.31-13.28-16.4-23.6-13.59l-37.18,10c-10.24,2.74-16.33,13.28-13.6,23.59,2.74,10.32,13.28,16.41,23.6,13.6l37.18-10c10.32-2.74,16.41-13.28,13.6-23.6Zm-23.91,103.05l-37.19-10c-10.23-2.73-20.78,3.36-23.59,13.6-2.73,10.31,3.36,20.85,13.6,23.59l37.18,10c10.31,2.73,20.86-3.36,23.6-13.59,2.73-10.32-3.36-20.86-13.6-23.6Zm-30.93-219.84h-.01c-7.49-7.5-19.68-7.5-27.26,0l-27.27,27.26c-7.5,7.5-7.5,19.69,0,27.27,7.5,7.5,19.69,7.5,27.27,0l27.27-27.27c7.57-7.57,7.57-19.76,0-27.26Z"/><path class="cls-1" d="M445.16,19.3V57.81c0,10.63-8.6,19.3-19.3,19.3s-19.3-8.59-19.3-19.3V19.3c0-10.63,8.6-19.3,19.3-19.3s19.3,8.59,19.3,19.3Z"/><path class="cls-1" d="M336.64,95c-9.22,5.31-21.02,2.19-26.33-7.03l-19.3-33.36c-5.39-9.3-2.18-21.02,7.04-26.33,9.21-5.31,21.01-2.19,26.32,7.03l19.3,33.36c5.31,9.22,2.19,21.02-7.03,26.33Z"/><path class="cls-1" d="M484.55,304.76c-2.91-6.96-6.44-13.58-10.54-19.81-4-6.11-8.55-11.84-13.56-17.12-22.21-23.38-53.59-37.99-88.34-37.99h-1.1c-7.62-22.89-20.87-42.97-37.99-58.79-5.08-4.7-10.49-9.01-16.2-12.92-5.74-3.93-11.77-7.43-18.06-10.48-18.7-9.08-39.62-14.13-61.5-14.13-72.57,0-132.5,55.15-140.15,125.7C42.73,264.3,0,310.31,0,366.02c0,29.84,12.5,58.82,34.3,79.45,19.21,18.2,43.36,27.97,68.67,27.97,1.87,0,3.67-.08,5.54-.16,1.64-.08,3.29-.23,4.93-.39h247.97c.78,0,1.56-.08,2.34-.08,2.58,.24,5.16,.39,7.81,.47,22.66,.71,45.78-5.94,66.49-19.29,35-22.5,55.86-60.79,55.86-102.43,0-16.57-3.33-32.39-9.36-46.8Zm-68.93,114.54c-9.45,6.17-24.76,13.43-42.89,12.81-2.18-.08-4.37-.23-6.56-.47H112.34l-2.18,.16c-1.33,.15-2.74,.23-4.07,.31-15.62,1.02-31.25-4.92-43.51-16.56-13.6-12.89-21.41-30.94-21.41-49.53,0-36.41,29.69-66.1,66.09-66.1,2.58,0,5,.16,7.43,.47l23.98,2.74-1.09-24.15c-.08-1.48-.08-2.96-.08-4.45,0-55.08,44.76-99.84,99.84-99.84,14.27,0,27.94,3.03,40.35,8.51,6.39,2.83,12.45,6.31,18.08,10.37,6.25,4.52,11.98,9.75,17.04,15.58,11.21,12.9,19.19,28.78,22.58,46.48l3.75,19.76,19.84-3.28c4.3-.7,8.75-1.09,13.21-1.09,23.14,0,44.05,9.84,58.76,25.55,4.74,5.05,8.83,10.72,12.15,16.86,3.27,6.04,5.79,12.55,7.42,19.39,1.45,6.02,2.21,12.29,2.21,18.74,0,27.58-13.82,52.89-37.11,67.74Z"/></svg>