<?xml version="1.0" encoding="utf-8"?>
<!-- Generator: Adobe Illustrator 27.0.0, SVG Export Plug-In . SVG Version: 6.00 Build 0)  -->
<svg version="1.1" id="icons" xmlns="http://www.w3.org/2000/svg" xmlns:xlink="http://www.w3.org/1999/xlink" x="0px" y="0px"
	 viewBox="0 0 100 100" style="enable-background:new 0 0 100 100;" xml:space="preserve">
<style type="text/css">
	.st0{fill:#D2D2D2;}
</style>
<polygon class="st0" points="90.6,66.5 92.9,75 84.3,77.3 82.6,70.9 76,67 73.9,78.5 71.5,64.5 56.4,55.7 51.1,61 51.1,76.3 
	62.1,85.4 51.1,81.4 51.1,89 55.8,93.7 49.6,100 43.3,93.7 48.1,89 48.1,81.4 37.1,85.4 48.1,76.3 48.1,61 42.8,55.7 27.6,64.5 
	25.2,78.5 22.8,67.2 16.5,70.9 14.8,77.3 6.3,75 8.5,66.5 15.1,68.2 21.3,64.6 12.7,56.9 26.1,61.8 40.6,53.5 37.1,50 40.5,46.6 
	26,38.2 12.7,43.2 21.3,35.5 14.9,31.8 8.5,33.5 6.3,25 14.8,22.7 16.5,29.2 22.8,32.9 25.2,21.5 27.6,35.6 42.7,44.4 48.1,39.1 
	48.1,23.8 37.1,14.7 48.1,18.3 48.1,11 43.3,6.2 49.6,0 55.8,6.2 51.1,11 51.1,18.3 62.1,14.7 51.1,23.8 51.1,39.1 56.4,44.4 
	71.5,35.6 73.9,21.5 76,33 82.6,29.2 84.3,22.7 92.9,25 90.6,33.5 84.2,31.8 77.5,35.6 86.4,43.2 73.1,38.2 58.6,46.6 62.1,50 
	58.6,53.5 73,61.8 86.4,56.9 77.5,64.4 84.1,68.2 "/>
</svg>
