<?xml version="1.0" encoding="utf-8"?>
<!-- Generator: Adobe Illustrator 27.0.0, SVG Export Plug-In . SVG Version: 6.00 Build 0)  -->
<svg version="1.1" id="Capa_1" xmlns="http://www.w3.org/2000/svg" xmlns:xlink="http://www.w3.org/1999/xlink" x="0px" y="0px"
	 viewBox="0 0 800 800" style="enable-background:new 0 0 800 800;" xml:space="preserve">
<style type="text/css">
	.st0{fill:#F75C2F;}
</style>
<g id="SVGRepo_bgCarrier">
</g>
<g id="SVGRepo_tracerCarrier">
</g>
<g id="SVGRepo_iconCarrier">
	<g>
		<path class="st0" d="M797.8,722.2L413.5,62.1c-2.8-4.8-7.9-7.7-13.5-7.7c-5.5,0-10.6,2.9-13.3,7.7L2.2,722.2
			c-2.8,4.8-2.9,10.8-0.2,15.6c2.8,4.8,7.9,7.8,13.5,7.8h769c5.6,0,10.8-3,13.5-7.8c1.3-2.4,2-5.1,2-7.8
			C800,727.3,799.3,724.6,797.8,722.2z M452.5,288.7l-12.8,262.4h-66L361,288.7H452.5z M406.7,685.5h-1.2c-30.1,0-51-22.6-51-52.7
			c0-31.3,21.4-52.7,52.1-52.7s51,21.4,51.6,52.7C458.3,662.9,438,685.5,406.7,685.5z"/>
	</g>
</g>
</svg>
