<?xml version="1.0" encoding="utf-8"?>
<!-- Generator: Adobe Illustrator 27.0.0, SVG Export Plug-In . SVG Version: 6.00 Build 0)  -->
<svg version="1.1" id="icons" xmlns="http://www.w3.org/2000/svg" xmlns:xlink="http://www.w3.org/1999/xlink" x="0px" y="0px"
	 viewBox="0 0 100 100" style="enable-background:new 0 0 100 100;" xml:space="preserve">
<style type="text/css">
	.st0{fill:#A59ACA;}
</style>
<rect x="55.7" y="25.2" class="st0" width="22.6" height="4.4"/>
<rect x="40.4" y="25.2" class="st0" width="10.4" height="4.4"/>
<rect x="83.2" y="25.2" class="st0" width="11.9" height="4.4"/>
<rect x="13.6" y="25.2" class="st0" width="21.8" height="4.4"/>
<rect x="45.5" y="37.9" class="st0" width="22.6" height="4.4"/>
<rect x="30.2" y="37.9" class="st0" width="10.4" height="4.4"/>
<rect x="73.1" y="37.9" class="st0" width="11.9" height="4.4"/>
<rect x="3.4" y="37.9" class="st0" width="21.8" height="4.4"/>
<rect x="55.7" y="50.5" class="st0" width="22.6" height="4.4"/>
<rect x="40.3" y="50.5" class="st0" width="10.4" height="4.4"/>
<rect x="83.2" y="50.5" class="st0" width="11.9" height="4.4"/>
<rect x="13.6" y="50.5" class="st0" width="21.8" height="4.4"/>
<rect x="45.5" y="63.1" class="st0" width="22.6" height="4.4"/>
<rect x="30.2" y="63.1" class="st0" width="10.4" height="4.4"/>
<rect x="73.1" y="63.1" class="st0" width="11.9" height="4.4"/>
<rect x="55.3" y="75.8" class="st0" width="22.6" height="4.4"/>
<rect x="39.9" y="75.8" class="st0" width="10.4" height="4.4"/>
<rect x="13.2" y="75.8" class="st0" width="21.8" height="4.4"/>
</svg>
