<?xml version="1.0" encoding="utf-8"?>
<!-- Generator: Adobe Illustrator 27.0.0, SVG Export Plug-In . SVG Version: 6.00 Build 0)  -->
<svg version="1.1" id="Capa_1" xmlns="http://www.w3.org/2000/svg" xmlns:xlink="http://www.w3.org/1999/xlink" x="0px" y="0px"
	 viewBox="0 0 800 800" style="enable-background:new 0 0 800 800;" xml:space="preserve">
<style type="text/css">
	.st0{fill:#1E88A8;}
</style>
<g id="SVGRepo_bgCarrier">
</g>
<g id="SVGRepo_tracerCarrier">
</g>
<g id="SVGRepo_iconCarrier">
	<g>
		<g>
			<path class="st0" d="M686.1,540.7c-19.4-121-128.2-215.4-263.1-225.5v-23.1h-47.5v23.1c-134.9,10-243.6,104.4-263.1,225.5
				c-3,18.8-2.8,18.3,6.1,1.1c15.5-29.9,48.8-50.7,87.4-50.7c40.4,0,75,22.7,89.5,54.8c7.9,17.6,6.5,17.6,14.4,0
				c11.5-25.6,35.9-45.2,65.7-52.1v213.3c0,26-23.1,47.2-51.6,47.2h-15.1c-28.4,0-51.6-21.2-51.6-47.2h-47.5
				c0,50,44.5,90.6,99.1,90.6H324c54.6,0,99.1-40.7,99.1-90.6V493.9c29.8,6.9,54.2,26.5,65.7,52.1c7.9,17.6,6.5,17.6,14.4,0
				c14.5-32.2,49.1-54.8,89.5-54.8c38.6,0,72,20.7,87.4,50.7C689,559,689.2,559.5,686.1,540.7z"/>
			<path class="st0" d="M689.3,516.4C689.3,517.7,689.3,517.7,689.3,516.4C689.2,515.1,689.2,515.1,689.3,516.4z"/>
		</g>
	</g>
</g>
<rect x="162.1" y="46.7" class="st0" width="27.2" height="71.5"/>
<rect x="162.1" y="151" class="st0" width="27.2" height="71.5"/>
<rect x="162.1" y="255.3" class="st0" width="27.2" height="71.5"/>
<rect x="273.9" y="74.1" class="st0" width="27.2" height="71.5"/>
<rect x="273.9" y="178.4" class="st0" width="27.2" height="71.5"/>
<rect x="385.7" y="45.6" class="st0" width="27.2" height="71.5"/>
<rect x="385.7" y="149.9" class="st0" width="27.2" height="71.5"/>
<rect x="497.5" y="74.1" class="st0" width="27.2" height="71.5"/>
<rect x="497.5" y="178.4" class="st0" width="27.2" height="71.5"/>
<rect x="609.3" y="46.7" class="st0" width="27.2" height="71.5"/>
<rect x="609.3" y="151" class="st0" width="27.2" height="71.5"/>
<rect x="609.3" y="255.3" class="st0" width="27.2" height="71.5"/>
</svg>
