<?xml version="1.0" encoding="utf-8"?>
<!-- Generator: Adobe Illustrator 27.0.0, SVG Export Plug-In . SVG Version: 6.00 Build 0)  -->
<svg version="1.1" id="Layer_1" xmlns="http://www.w3.org/2000/svg" xmlns:xlink="http://www.w3.org/1999/xlink" x="0px" y="0px"
	 viewBox="0 0 800 800" style="enable-background:new 0 0 800 800;" xml:space="preserve">
<style type="text/css">
	.st0{fill:#FCFAF2;}
</style>
<g>
	<g>
		<path class="st0" d="M597.4,297.9c-8.3,46.4-26.3,86.1-53.4,118c-7.3,8.6-14.9,16.7-22.6,24.4v-46.2c0-22.3-17.1-39.8-39.1-40
			c-16.8,0-27.5,9-37.9,18.9l-90,85.1h-59.8c-18.7,0-33.5,5.5-43.9,16.3c-10.3,10.8-15.6,26-15.6,45.4v6.4
			c-26.5-6-52.5-15.5-77.1-28.2l-1.3-0.7l1.2-0.7c169-97.2,256.8-182.1,300.7-236.2c39.4-48.5,51.4-81.6,54.4-91.8
			C446.8,245.9,372.7,315.3,292.6,375c-68.5,51.1-128,85.5-171.4,110.6c-17.1,9.9-31.8,18.4-43.1,25.7l-0.7,0.5l-22.5-39.4l0.7-0.4
			l69.2-40.8c-1.2-109.3,30.8-193.8,95.2-251c56.2-50,123.8-65.8,146-70.9c91-21.2,145.6-48.2,174.9-62.6c14.2-7,20.6-10.2,23.2-8.8
			l0.2,0.1l0.1,0.3c0.2,0.6,24.7,60.4,34.4,136.4C604.5,219.4,604.1,260.8,597.4,297.9z"/>
	</g>
</g>
<path class="st0" d="M752.2,561c0,53.5-15.9,104.7-43.4,143.1c-5.8,8.3-15.9,10.5-24,5c-7.9-5.4-9-15.7-3.2-24.7
	c23.4-33,37-77.2,37-123.4c0-46.1-14-90-36.7-123.5c-6.3-8.9-5-19.2,2.9-24.6c8.1-5.4,17.9-3.3,24,4.8
	C736.5,456.1,752.2,507.3,752.2,561z"/>
<path class="st0" d="M650.9,561c0,32.8-9.9,65-26.1,86.9c-6,8.1-16.3,9.9-23.4,4.8c-8.9-6.3-10-16.5-3.8-25.6
	c11.9-16.5,19.7-41.3,19.7-66.2c0-24.8-7.3-49.7-19.5-66c-6.7-9.2-5.6-19.8,3.6-25.9c7.3-5,17.3-3.3,23.4,4.8
	C640.8,496.2,650.9,528.1,650.9,561z"/>
<g>
	<path class="st0" d="M493,394.1v333.2c0,6.3-3.9,10.2-10.2,10.2c-5.2,0-10.2-1.6-19-9.7l-92-87.9l-0.5-0.5
		c-2.8-2.4-7.6-5.3-14.7-5.3h-62c-21.8,0-31.1-9.9-31.1-33.2v-81.1c0-23.4,9.3-33.3,31.1-33.3h62c5.8,0,11.1-2,15-5.7l92.2-87.2
		c10-9.5,13.6-11.1,18.3-11.1C489.3,382.5,493,388.4,493,394.1z"/>
</g>
</svg>
